<svg width="47" height="56" viewBox="0 0 47 56" fill="none" xmlns="http://www.w3.org/2000/svg">
<g clip-path="url(#clip0_371_134)">
<path fill-rule="evenodd" clip-rule="evenodd" d="M23.5097 56C23.0578 56 22.7444 55.6974 22.6822 55.1395C22.531 53.6924 22.4036 52.2801 22.2254 50.8441C21.7707 46.9964 21.2459 43.1713 20.0149 39.465C18.3476 34.3852 15.7762 30.5921 11.2056 29.522C6.63711 28.4637 0.925663 28.0728 0.817104 28.0596C0.281682 27.9778 -0.0300675 27.6682 0.00229542 27.2419C0.0678406 26.7847 0.33166 26.5315 0.808092 26.492C1.90925 26.3703 3.00058 26.2519 4.08576 26.1072C6.51544 25.775 8.87302 25.3256 11.204 24.563C15.7409 23.071 18.729 20.1171 20.2 15.7169C21.1435 12.8353 21.6306 9.85505 22.012 6.85426C22.2565 4.86976 22.4716 2.88157 22.6785 0.913106C22.7444 0.305876 23.0259 0 23.515 0C23.9787 0 24.2774 0.28902 24.3675 0.913517C24.7903 4.35709 24.4974 3.44028 25.0496 6.86125C25.3298 8.58056 26.4191 14.0843 26.9852 15.7271C28.3911 19.8178 31.4255 23.1335 35.6097 24.563C38.2479 25.4695 40.1803 25.7491 42.9266 26.0907C43.7381 26.1865 45.2981 26.3999 46.099 26.4784C46.7135 26.5446 46.999 26.7975 46.999 27.2575C47.0195 27.7307 46.7209 28 46.099 28.0465C43.2752 28.3215 42.4506 28.0465 35.6097 29.522C28.7832 31.0127 27.6775 37.0266 26.9729 39.4778C25.9877 42.9772 25.1262 47.2394 24.7325 50.8573C24.5727 52.0438 24.4711 53.9267 24.3212 55.1395C24.2856 55.669 23.998 56 23.5097 56Z" fill="#E96A53"/>
</g>
<defs>
<clipPath id="clip0_371_134">
<rect width="47" height="56" fill="white"/>
</clipPath>
</defs>
</svg>
