<svg width="45" height="58" viewBox="0 0 45 58" fill="none" xmlns="http://www.w3.org/2000/svg">
<g clip-path="url(#clip0_654_28)">
<path fill-rule="evenodd" clip-rule="evenodd" d="M36.0268 20.7143C35.8542 20.7143 35.7345 20.6024 35.7107 20.396C35.6529 19.8607 35.6043 19.3383 35.5362 18.8071C35.3625 17.3839 35.1621 15.969 34.6919 14.598C34.055 12.719 33.0728 11.316 31.327 10.9201C29.582 10.5287 27.4004 10.3841 27.359 10.3792C27.1545 10.3489 27.0354 10.2344 27.0478 10.0767C27.0728 9.90761 27.1736 9.81394 27.3555 9.79934C27.7761 9.75432 28.193 9.71052 28.6075 9.65699C29.5355 9.53412 30.4361 9.3679 31.3264 9.0858C33.0594 8.53393 34.2007 7.44128 34.7626 5.81363C35.123 4.74775 35.309 3.64536 35.4547 2.53538C35.5481 1.80131 35.6302 1.06589 35.7093 0.337756C35.7345 0.113143 35.842 0 36.0288 0C36.2059 0 36.32 0.106908 36.3544 0.337908C36.5159 1.61168 36.404 1.27255 36.6149 2.53796C36.722 3.17393 37.138 5.20975 37.3543 5.81743C37.8913 7.33057 39.0503 8.55704 40.6486 9.0858C41.6563 9.42113 42.3944 9.52454 43.4434 9.65091C43.7533 9.68635 44.3492 9.76527 44.6551 9.79432C44.8898 9.8188 44.9989 9.91233 44.9989 10.0825C45.0067 10.2575 44.8926 10.3571 44.6551 10.3743C43.5765 10.4761 43.2615 10.3743 40.6486 10.9201C38.0411 11.4715 37.6187 13.6961 37.3496 14.6027C36.9733 15.8972 36.6442 17.4737 36.4938 18.812C36.4328 19.2509 36.394 19.9474 36.3367 20.396C36.3231 20.5919 36.2133 20.7143 36.0268 20.7143Z" fill="#79CBC5"/>
</g>
<g clip-path="url(#clip1_654_28)">
<path fill-rule="evenodd" clip-rule="evenodd" d="M20.8406 58C20.4556 58 20.1886 57.7463 20.1355 57.2785C20.0067 56.0652 19.8982 54.8811 19.7463 53.6771C19.3589 50.451 18.9117 47.2439 17.8628 44.1365C16.4421 39.8773 14.2511 36.6971 10.3566 35.7999C6.46392 34.9126 1.59733 34.5848 1.50483 34.5738C1.04861 34.5052 0.782974 34.2456 0.81055 33.8882C0.866399 33.5049 1.09119 33.2925 1.49715 33.2594C2.43542 33.1574 3.36532 33.0581 4.28998 32.9368C6.36025 32.6583 8.36909 32.2815 10.3552 31.6421C14.2211 30.3912 16.7671 27.9145 18.0206 24.2252C18.8245 21.8092 19.2395 19.3104 19.5645 16.7945C19.7729 15.1306 19.9561 13.4636 20.1324 11.8132C20.1886 11.3041 20.4284 11.0476 20.8452 11.0476C21.2403 11.0476 21.4948 11.2899 21.5716 11.8135C21.9318 14.7007 21.6822 13.9321 22.1528 16.8003C22.3915 18.2419 23.3197 22.8564 23.8021 24.2338C25 27.6636 27.5855 30.4436 31.1508 31.6421C33.3988 32.4022 35.0453 32.6366 37.3854 32.923C38.0769 33.0033 39.4061 33.1822 40.0885 33.2481C40.6121 33.3036 40.8554 33.5155 40.8554 33.9013C40.8728 34.298 40.6184 34.5238 40.0885 34.5627C37.6824 34.7934 36.9798 34.5627 31.1508 35.7999C25.3341 37.0498 24.392 42.092 23.7916 44.1472C22.9521 47.0812 22.218 50.6548 21.8826 53.6881C21.7464 54.6829 21.6599 56.2617 21.5321 57.2785C21.5018 57.7225 21.2567 58 20.8406 58Z" fill="#79CBC5"/>
</g>
<defs>
<clipPath id="clip0_654_28">
<rect width="17.9524" height="20.7143" fill="white" transform="translate(27.0469)"/>
</clipPath>
<clipPath id="clip1_654_28">
<rect width="40.0476" height="46.9524" fill="white" transform="translate(0.808594 11.0476)"/>
</clipPath>
</defs>
</svg>
