<svg width="29" height="19" viewBox="0 0 29 19" fill="none" xmlns="http://www.w3.org/2000/svg">
<path fill-rule="evenodd" clip-rule="evenodd" d="M23.109 13.7081C25.204 12.3356 26 10.7836 26 9.5C26 8.21637 25.204 6.66445 23.109 5.29187C21.04 3.93632 18.0048 3 14.5 3C10.9952 3 7.96002 3.93632 5.89103 5.29187C3.79604 6.66445 3 8.21637 3 9.5C3 10.7836 3.79604 12.3356 5.89103 13.7081C7.96002 15.0637 10.9952 16 14.5 16C18.0048 16 21.04 15.0637 23.109 13.7081ZM14.5 19C22.5081 19 29 14.7467 29 9.5C29 4.25329 22.5081 0 14.5 0C6.49187 0 0 4.25329 0 9.5C0 14.7467 6.49187 19 14.5 19Z" fill="#C4C4C4"/>
<path fill-rule="evenodd" clip-rule="evenodd" d="M14.5 12C16.433 12 18 10.433 18 8.5C18 6.567 16.433 5 14.5 5C12.567 5 11 6.567 11 8.5C11 10.433 12.567 12 14.5 12ZM14.5 15C18.0899 15 21 12.0899 21 8.5C21 4.91015 18.0899 2 14.5 2C10.9101 2 8 4.91015 8 8.5C8 12.0899 10.9101 15 14.5 15Z" fill="#C4C4C4"/>
</svg>
